<?xml version="1.0" encoding="utf-8"?>
<!-- Generator: Adobe Illustrator 23.0.1, SVG Export Plug-In . SVG Version: 6.00 Build 0)  -->
<svg version="1.1" id="Calque_1" xmlns="http://www.w3.org/2000/svg" xmlns:xlink="http://www.w3.org/1999/xlink" x="0px" y="0px"
	 viewBox="0 0 68 68" style="enable-background:new 0 0 68 68;" xml:space="preserve">
<path d="M61,18.4c6.4-6.4,8.5-13.3,5.3-16.5c-1-1-2.5-1.6-4-1.6c-3.5,0-8.2,2.6-12.5,6.9l-8.7,8.7l-0.2,0.1l-29.5-5.5
	c-0.9-0.1-2.1,0.2-2.7,0.9l-3.1,3.1c-0.7,0.7-1,1.6-0.8,2.4c0.2,0.8,0.8,1.5,1.7,1.9L30,28L14.5,46.9l0,0l0,0L6,45.4
	c-0.9-0.1-2.1,0.2-2.7,0.9l-2,2c-0.7,0.7-1,1.6-0.8,2.4c0.2,0.8,0.8,1.5,1.7,1.9l9.4,3.7c0.1,0,0.3,0.2,0.3,0.3l3.7,9.4
	c0.4,1,1.3,1.7,2.4,1.7c0.7,0,1.3-0.3,1.9-0.8l2-2c0.7-0.7,1-1.8,0.9-2.7l-1.6-8.5l0,0l18.9-15.5l9.3,23.6c0.4,1,1.3,1.7,2.4,1.7
	c0.7,0,1.3-0.3,1.9-0.8l3.1-3.1c0.7-0.7,1-1.8,0.9-2.7l-5.5-29.6c0-0.1,0-0.2,0.1-0.2L61,18.4z"/>
</svg>
