<?xml version="1.0" encoding="utf-8"?>
<!-- Generator: Adobe Illustrator 23.0.1, SVG Export Plug-In . SVG Version: 6.00 Build 0)  -->
<svg version="1.1" id="Calque_1" xmlns="http://www.w3.org/2000/svg" xmlns:xlink="http://www.w3.org/1999/xlink" x="0px" y="0px"
	 viewBox="0 0 68 68" style="enable-background:new 0 0 68 68;" xml:space="preserve">
<g>
	<path d="M21.3,48.2h24c5.8,0,10.6-4.7,10.6-10.6v-3c6.5-0.4,11.4-5.8,11.4-12.5c0-6.5-5.2-11.9-11.4-12.5l0,0H10.7v28.1
		C10.7,43.5,15.4,48.2,21.3,48.2z M61,22.1c0,3-2.2,5.4-5,5.8V16.1C58.6,16.7,61,19.1,61,22.1z"/>
	<path d="M0.1,52.6c0,3.2,2.6,5.8,5.8,5.8h56.1c3.2,0,5.8-2.6,5.8-5.8H0.1z"/>
</g>
</svg>
