<?xml version="1.0" encoding="utf-8"?>
<!-- Generator: Adobe Illustrator 23.0.1, SVG Export Plug-In . SVG Version: 6.00 Build 0)  -->
<svg version="1.1" xmlns="http://www.w3.org/2000/svg" xmlns:xlink="http://www.w3.org/1999/xlink" x="0px" y="0px"
	 viewBox="0 0 68 68" style="enable-background:new 0 0 68 68;" xml:space="preserve">
<g id="Calque_2">
</g>
<g id="Calque_1">
	<path d="M44.2,0c-2.2,0.1-4.3,0.7-6.3,1.6c-2.4,1.1-5.2,1.1-7.7,0c-2-0.9-4.2-1.4-6.3-1.6C12.4-0.7,3.6,9,3.6,21
		c0,6.6,3.7,11,6.7,19.1c1.9,4.9,2.3,7.7,4.5,16.9c1.2,5.1,3.8,11,9,11s4.9-14,6.1-20.1c0.6-2.8,1.5-4.1,2.4-5.2c0.9-1,2.4-1,3.2,0
		c0.9,1.1,1.9,2.4,2.4,5.2c1.2,6.1,0.8,20.1,6.1,20.1s7.8-5.9,9-11c2.2-9.2,2.7-12,4.5-16.9c3-8,6.7-12.5,6.7-19.1
		C64.4,9,55.7-0.7,44.2,0z"/>
</g>
</svg>
