<?xml version="1.0" encoding="utf-8"?>
<!-- Generator: Adobe Illustrator 23.0.1, SVG Export Plug-In . SVG Version: 6.00 Build 0)  -->
<svg version="1.1" xmlns="http://www.w3.org/2000/svg" xmlns:xlink="http://www.w3.org/1999/xlink" x="0px" y="0px"
	 viewBox="0 0 68 68" style="enable-background:new 0 0 68 68;" xml:space="preserve">
<g id="Calque_2">
</g>
<g id="Calque_1">
	<path d="M58.5,22.3c-4.3,0.9-7,5.1-6.1,9.3c0.5,2.6,2.3,4.7,4.8,5.7v5.8c0.1,8.3-6,15.4-14.2,16.4c-8.7,0.9-16.4-5.5-17.3-14.2
		c-0.1-0.5-0.1-1-0.1-1.5v-2.3c10.3-1.9,17.7-10.9,17.7-21.3v-9.9c0-4.4-3.5-7.9-7.9-7.9h-4.9c-1.6,0-3,1.3-3,3s1.3,3,3,3h4.9
		c1.1,0,2,0.9,2,2v9.2c0.1,8.3-6,15.4-14.2,16.4C14.6,36.8,6.9,30.4,6,21.8c-0.1-0.5-0.1-1-0.1-1.5v-9.9c0-1.1,0.9-2,2-2h4.9
		c1.6,0,3-1.3,3-3s-1.3-3-3-3l0,0H7.9C3.5,2.5,0,6,0,10.4v9.9c0,11.2,8.6,20.6,19.7,21.6v1.1C19.5,54.3,28,64.1,39.3,65.5
		C51.2,66.6,61.8,57.9,63,46c0.1-0.7,0.1-1.4,0.1-2.1v-6.5c4-1.6,6-6.2,4.4-10.3C66,23.6,62.3,21.6,58.5,22.3z"/>
</g>
</svg>
