<?xml version="1.0" encoding="utf-8"?>
<!-- Generator: Adobe Illustrator 23.0.1, SVG Export Plug-In . SVG Version: 6.00 Build 0)  -->
<svg version="1.1" xmlns="http://www.w3.org/2000/svg" xmlns:xlink="http://www.w3.org/1999/xlink" x="0px" y="0px"
	 viewBox="0 0 68 68" style="enable-background:new 0 0 68 68;" xml:space="preserve">
<g id="Calque_2">
</g>
<g id="Calque_1">
	<g>
		<path d="M64.7,44.2H6.8V3.4C6.8,1.5,5.3,0,3.4,0S0,1.5,0,3.4v61.2C0,66.5,1.5,68,3.4,68s3.4-1.5,3.4-3.4V51h54.4v13.6
			c0,1.9,1.5,3.4,3.4,3.4s3.4-1.5,3.4-3.4v-17C68,45.7,66.5,44.2,64.7,44.2z"/>
		<circle cx="17" cy="25" r="6.8"/>
		<path d="M54.4,20.4H30.6l0,0l0,0c-1.9,0-3.4,1.5-3.4,3.4V34H13.6c-1.9,0-3.4,1.5-3.4,3.4s1.5,3.4,3.4,3.4h49.7
			c0.8,0,1.4-0.6,1.4-1.4v-8.8C64.7,25,60.1,20.4,54.4,20.4z"/>
	</g>
</g>
</svg>
