<?xml version="1.0" encoding="utf-8"?>
<!-- Generator: Adobe Illustrator 23.0.1, SVG Export Plug-In . SVG Version: 6.00 Build 0)  -->
<svg version="1.1" id="Calque_1" xmlns="http://www.w3.org/2000/svg" xmlns:xlink="http://www.w3.org/1999/xlink" x="0px" y="0px"
	 viewBox="0 0 68 68" style="enable-background:new 0 0 68 68;" xml:space="preserve">
<g>
	<path d="M43.7,0H24.3c-1.1,0-2.1,0.9-2.1,2.1v20h-20C1,22.1,0,23,0,24.3v19.5c0,1.1,0.9,2.1,2.1,2.1h20v20c0,1.1,0.9,2.1,2.1,2.1
		h19.5c1.1,0,2.1-0.9,2.1-2.1v-20h20c1.1,0,2.1-0.9,2.1-2.1V24.3c0-1.1-0.9-2.1-2.1-2.1h-20v-20C45.9,0.9,45,0,43.7,0z"/>
</g>
</svg>
