<?xml version="1.0" encoding="utf-8"?>
<!-- Generator: Adobe Illustrator 23.0.1, SVG Export Plug-In . SVG Version: 6.00 Build 0)  -->
<svg version="1.1" id="Calque_1" xmlns="http://www.w3.org/2000/svg" xmlns:xlink="http://www.w3.org/1999/xlink" x="0px" y="0px"
	 viewBox="0 0 68 68" style="enable-background:new 0 0 68 68;" xml:space="preserve">
<g>
	<path d="M25.6,31.2l1.1-0.6l2.2,4.4l3.8-5.6l-7.4-11.2L13.9,0.8c-0.5-0.8-1.6-1.1-2.4-0.6C9,1.7,8,4.6,9,7.2l8.2,21.1
		C18.4,31.6,22.4,33,25.6,31.2z"/>
	<path d="M39.5,39.8l-4.1,8.4l8.4,17c1.3,2.6,4.4,3.6,6.9,2.1l0.4-0.3c2.5-1.4,3.3-4.7,1.6-7.1L39.5,39.8z"/>
	<path d="M59.1,6.1c-0.7-0.6-1.8-0.4-2.3,0.4c0,0-6.4,10.7-8.3,13.7c-0.3,0.4-0.9,0.6-1.3,0.4l0,0c-0.4-0.3-0.6-0.9-0.4-1.3
		c1.7-3.2,7.7-14,7.7-14C55,4.4,54.6,3.4,53.7,3c-0.6-0.2-1.4,0.1-1.7,0.6l-8.3,13.7c-0.3,0.4-0.9,0.6-1.3,0.4l0,0
		c-0.4-0.3-0.6-0.9-0.4-1.3c1.7-3.2,7.7-14,7.7-14c0.4-0.8,0.1-1.8-0.9-2.1c-0.6-0.2-1.4,0.1-1.7,0.6l-8.8,14.5l0,0l0,0l-1.1,1.9
		c-1.1,1.9-1.5,4.2-1,6l1.1,3.9L15.1,59.9c-1.6,2.4-0.9,5.7,1.6,7.1l0.4,0.3c2.5,1.4,5.7,0.5,6.9-2.1l17.3-35.5l3.9-1
		c1.9-0.5,3.6-1.9,4.7-3.9l1.1-1.9l0,0l0,0L59.2,8C59.8,7.3,59.7,6.6,59.1,6.1z"/>
</g>
</svg>
