<?xml version="1.0" encoding="utf-8"?>
<!-- Generator: Adobe Illustrator 23.0.1, SVG Export Plug-In . SVG Version: 6.00 Build 0)  -->
<svg version="1.1" xmlns="http://www.w3.org/2000/svg" xmlns:xlink="http://www.w3.org/1999/xlink" x="0px" y="0px"
	 viewBox="0 0 68 68" style="enable-background:new 0 0 68 68;" xml:space="preserve">
<g id="Calque_2">
</g>
<g id="Calque_1">
	<g>
		<path d="M34,40.3c-1.7,0-3.4-0.2-5.1-0.7l-17.5-5.2v9.5c0,2.1,1.4,3.9,3.3,4.4l7.3,2.1c7.9,2.4,16.5,2.4,24.4,0l7.3-2.1
			c1.9-0.6,3.3-2.4,3.3-4.4v-9.7l-17.9,5.3C37.4,40.1,35.7,40.3,34,40.3z"/>
		<path d="M66.5,24.6l-28.2-8.4c-2.8-0.9-5.8-0.9-8.7,0L1.5,24.6c-1.9,0.6-1.9,3.4,0,3.9l28.2,8.4c2.8,0.9,5.8,0.9,8.7,0L63,29.6v13
			c-0.5,0.2-0.9,0.7-0.9,1.3V45c0,0.6,0.4,1.1,0.9,1.3l-1.6,3.8c-0.1,0.4,0.1,0.9,0.5,0.9l1.4,0.1c0.3,0,0.6,0,0.9,0l1.4-0.1
			c0.4-0.1,0.7-0.5,0.5-0.9l-1.6-3.8c0.6-0.2,0.9-0.7,0.9-1.3v-1.1c0-0.6-0.4-1.1-0.9-1.3V29.2l2.1-0.6C68.5,28,68.5,25.2,66.5,24.6
			z"/>
	</g>
</g>
</svg>
