<?xml version="1.0" encoding="utf-8"?>
<!-- Generator: Adobe Illustrator 23.0.1, SVG Export Plug-In . SVG Version: 6.00 Build 0)  -->
<svg version="1.1" xmlns="http://www.w3.org/2000/svg" xmlns:xlink="http://www.w3.org/1999/xlink" x="0px" y="0px"
	 viewBox="0 0 68 68" style="enable-background:new 0 0 68 68;" xml:space="preserve">
<g id="Calque_2">
</g>
<g id="Calque_1">
	<g>
		<circle cx="20.3" cy="58.6" r="7"/>
		<ellipse cx="57" cy="58.6" rx="7" ry="7"/>
		<path d="M0,4c0,0.9,0.7,1.6,1.6,1.6h2.9c2.3,0,4.3,1.7,4.7,4l5.3,31.1c0.7,3.8,4,6.6,7.9,6.6h34.8c0.9,0,1.6-0.7,1.6-1.6
			s-0.7-1.6-1.6-1.6H22.4c-2.3,0-4.3-1.7-4.7-4l-0.3-2h37.9c3.6,0,6.7-2.4,7.7-5.8l5-18c0.1-0.5,0-1-0.3-1.4
			c-0.3-0.4-0.8-0.6-1.3-0.6H13l-0.6-3.3c-0.7-3.8-4-6.6-7.9-6.6H1.6C0.7,2.4,0,3.2,0,4z"/>
	</g>
</g>
</svg>
